PathFileType	4	(X/Y/Z)	D:\TRACE\v60_Jaco2_6-2-23\BothDRS_Motion2_6-platform.trc
DataRate	CameraRate	NumFrames	NumMarkers	Units	OrigDataRate	OrigDataStartFrame	OrigNumFrames
100.00	100.00	      54	5	mm	100.00	4688	      7500
Frame#	Time	Left_Front			Right_Front			Left_Aft			Right_Aft			Post			
		X1	Y1	Z1	X2	Y2	Z2	X3	Y3	Z3	X4	Y4	Z4	X5	Y5	Z5	

4688	46.870	-814.32062	-40.85331	-648.93976	756.09167	-39.12367	-654.33124	-722.15784	41.48392	483.35892	719.30090	41.57782	492.10864	-27.52244	1229.17932	-1093.07666	
4689	46.880	-813.07245	-40.04080	-648.83862	757.11377	-38.13449	-654.12976	-721.31616	41.04959	483.56519	720.86670	41.58122	492.35568	-26.59819	1230.57520	-1090.60742	
4690	46.890	-811.80316	-39.32368	-648.63800	758.07330	-37.35476	-653.96735	-720.23712	40.38526	483.75748	722.17987	41.09099	492.59631	-25.60479	1231.90002	-1088.23059	
4691	46.900	-810.79022	-38.50330	-648.42242	759.32343	-36.64239	-653.80084	-719.02234	39.61352	483.95334	723.00037	40.29979	492.74530	-24.68224	1233.64941	-1085.87341	
4692	46.910	-809.82874	-37.19855	-648.53033	760.37103	-35.81522	-653.78644	-718.13794	39.14851	484.22189	724.22137	39.80842	493.24423	-23.49168	1235.27539	-1082.97705	
4693	46.920	-808.98834	-35.97855	-648.25024	761.28137	-34.54575	-653.36688	-716.93524	38.42602	484.55124	724.86743	38.96740	493.52484	-21.92564	1237.08557	-1080.23059	
4694	46.930	-807.74139	-35.24380	-648.07800	762.69867	-33.43503	-653.05505	-715.73975	37.64386	484.90027	726.41174	38.27250	493.68265	-21.01179	1238.97900	-1077.39050	
4695	46.940	-806.52411	-34.21294	-647.93372	763.50653	-32.31569	-653.33264	-714.73254	37.11113	485.08475	727.58832	37.60212	494.05325	-19.98123	1240.53101	-1074.50000	
4696	46.950	-805.52716	-32.76908	-647.88141	764.74139	-31.08844	-652.80457	-713.48828	36.14219	485.48651	728.58002	36.62209	494.29428	-19.24985	1242.75732	-1071.23120	
4697	46.960	-804.49432	-31.67850	-647.53705	765.76428	-30.15140	-652.71722	-712.49915	35.49755	485.73083	729.70917	35.83359	494.65472	-18.29492	1244.38721	-1067.90393	
4698	46.970	-803.23187	-30.68065	-647.27643	767.00055	-29.07149	-652.51813	-711.26776	34.76908	485.97064	730.53284	34.99481	494.94043	-16.95551	1246.32971	-1064.38977	
4699	46.980	-801.95251	-29.40569	-647.04877	768.24329	-27.67658	-652.25458	-710.18219	34.10126	486.49246	731.84137	34.28769	495.36560	-15.54123	1248.59033	-1060.89636	
4700	46.990	-801.14728	-28.27207	-646.66760	768.94507	-26.30805	-652.17450	-709.12366	32.91324	486.80063	732.95935	33.21622	495.71268	-14.57199	1250.78333	-1057.64001	
4701	47.000	-800.13074	-26.93245	-646.53772	770.23071	-24.73802	-651.69592	-707.92902	32.03350	487.24957	734.31702	32.10992	496.04279	-13.34298	1253.11938	-1054.09497	
4702	47.010	-798.89380	-25.23790	-646.25757	771.53754	-23.71752	-651.60254	-706.82690	31.06841	487.55453	735.28906	31.29915	496.40823	-12.66677	1255.70068	-1050.40564	
4703	47.020	-797.65057	-23.85638	-646.01965	772.31738	-22.03516	-651.28510	-705.73700	30.21989	488.01151	736.51501	30.30327	496.88278	-11.61757	1257.86267	-1046.59668	
4704	47.030	-796.44940	-22.58060	-645.54156	773.55768	-20.49381	-650.96246	-704.63196	29.37320	488.33896	737.54340	29.29212	497.25177	-10.49767	1260.04150	-1042.59375	
4705	47.040	-795.54572	-21.17362	-645.48358	774.83514	-19.55934	-650.84186	-703.64612	28.72792	488.66281	738.77435	28.41922	497.57971	-9.32150	1261.95154	-1038.33289	
4706	47.050	-794.20508	-19.81573	-645.30115	775.95514	-18.33713	-650.46704	-702.06158	27.47499	489.11240	739.45111	26.97335	497.97601	-8.00532	1264.17920	-1034.51001	
4707	47.060	-793.04883	-18.70788	-644.99744	776.87646	-16.90388	-650.28766	-701.14014	26.67902	489.45929	740.66492	26.55557	498.20972	-6.73678	1266.14771	-1029.89978	
4708	47.070	-791.93781	-17.46730	-644.75879	778.21277	-15.79841	-650.22980	-699.80688	25.63216	489.84946	742.36670	25.83429	498.52042	-5.91954	1267.99255	-1025.76501	
4709	47.080	-791.09174	-16.11651	-644.85254	779.05994	-14.42439	-649.85760	-698.79907	24.94236	490.00647	743.00708	24.60860	498.70474	-4.58739	1270.20166	-1021.24762	
4710	47.090	-789.74902	-14.67761	-644.19250	780.32178	-13.18631	-649.49310	-697.75159	23.86437	490.46408	744.63293	23.88251	499.15701	-3.78351	1272.18579	-1016.61511	
4711	47.100	-788.45313	-13.15476	-644.17096	781.48456	-11.74385	-649.29980	-696.55658	22.98781	490.61981	745.34399	22.63073	499.47745	-2.77591	1274.63611	-1012.06958	
4712	47.110	-787.36633	-11.81637	-643.79999	782.42804	-10.13091	-649.16547	-695.38562	22.03295	491.13776	746.75549	21.91666	500.03180	-1.50271	1276.62500	-1007.31500	
4713	47.120	-786.43280	-10.29392	-643.45056	783.79535	-8.83583	-648.63684	-694.06512	20.95206	491.37064	747.77771	20.84482	500.30920	-0.66970	1279.13208	-1002.78925	
4714	47.130	-785.20831	-8.69985	-643.22766	784.71460	-7.46684	-648.45404	-693.03888	19.85127	491.87292	748.80487	19.76072	500.68906	0.20485	1281.55090	-998.20538	
4715	47.140	-783.96124	-7.34116	-642.66565	785.90625	-5.60629	-648.17761	-691.98035	18.82598	492.11023	750.14453	18.59991	500.93365	1.62933	1284.10669	-994.58081	
4716	47.150	-782.98431	-5.53732	-642.35303	786.98889	-3.86748	-647.76190	-690.88379	17.73198	492.55997	751.15759	17.42039	501.35721	2.59391	1286.43457	-991.52478	
4717	47.160	-781.74518	-3.94429	-642.20020	788.36682	-2.39271	-647.21875	-689.72308	16.69618	492.98126	752.43805	16.40790	501.86600	3.75959	1288.71338	-988.94556	
4718	47.170	-780.81335	-2.57216	-641.74670	789.14093	-0.88263	-647.09595	-688.67419	15.77424	493.33490	752.99561	15.08893	502.18167	4.85621	1291.21692	-986.23206	
4719	47.180	-779.45343	-0.79585	-641.48169	790.39374	0.53379	-646.78668	-687.55322	14.45315	493.65298	754.65747	14.19171	502.59314	5.86174	1293.38440	-983.91797	
4720	47.190	-778.60010	0.76969	-640.90546	791.48834	2.15626	-646.27765	-686.59454	13.47695	493.99719	755.21106	12.88871	502.99542	7.34932	1295.78564	-981.47290	
4721	47.200	-777.38690	2.15190	-640.47919	792.42163	3.75559	-646.10834	-685.39496	12.28986	494.42218	756.44080	11.91551	503.30728	8.51413	1298.19604	-978.94263	
4722	47.210	-776.78333	4.01455	-640.49915	793.61810	5.37017	-645.77911	-684.28571	11.24025	494.83490	757.65424	10.84605	503.59061	9.58345	1300.51782	-976.32471	
4723	47.220	-775.35706	5.21765	-640.09015	794.62799	6.67213	-645.26227	-683.09369	10.01637	495.48859	758.66241	9.77755	503.97635	10.78472	1302.60266	-973.05414	
4724	47.230	-774.16589	6.70474	-639.71881	795.91705	8.35474	-644.90778	-681.96783	9.13031	495.88303	759.97357	8.77428	504.46326	11.47152	1304.75342	-969.94965	
4725	47.240	-773.18622	8.22010	-639.48602	796.77185	9.72229	-644.72235	-680.93140	7.88898	496.36353	760.73083	7.46668	504.71335	12.97290	1307.00781	-966.68420	
4726	47.250	-772.39178	9.81531	-639.02203	797.85687	11.11172	-644.24969	-680.03168	6.86154	496.55664	761.88776	6.46964	505.08850	14.30448	1309.13782	-963.53760	
4727	47.260	-771.46790	11.43832	-638.64001	798.82678	12.98485	-643.85907	-678.70233	5.50877	497.17743	762.67584	5.17521	505.38483	15.07697	1311.52686	-959.75885	
4728	47.270	-770.14716	12.95969	-638.23737	799.70660	14.39240	-643.56470	-677.87048	4.53214	497.54770	763.67255	4.12277	505.66187	16.11975	1313.51233	-955.86658	
4729	47.280	-768.93292	14.63441	-637.90417	800.81329	15.95526	-643.20642	-676.61975	3.33620	498.10721	764.83325	2.94852	506.14453	16.82430	1316.15552	-952.29559	
4730	47.290	-768.17023	16.27025	-637.33551	801.71393	17.62221	-643.00781	-676.16504	2.79914	497.61115	765.78870	1.74687	506.46585	18.01007	1318.60156	-947.92792	
4731	47.300	-767.22803	17.58452	-637.05078	802.66614	19.06335	-642.31891	-675.31476	1.70510	497.92871	766.99274	0.83421	506.90558	18.46651	1320.94324	-943.59271	
4732	47.310	-766.23175	18.79156	-636.66595	803.64038	20.59333	-641.85559	-674.24548	0.53898	498.34689	767.72070	-0.34113	507.23373	19.71127	1323.11084	-939.40802	
4733	47.320	-765.12915	20.24125	-636.20239	804.63727	22.12341	-641.50549	-673.30261	-0.54025	498.61783	768.40656	-1.62133	507.37448	20.43767	1325.55786	-935.21295	
4734	47.330	-764.43958	22.48658	-635.63007	805.54651	23.93759	-641.22754	-672.51508	-1.61887	499.21765	769.82233	-2.61724	507.86169	21.47202	1327.76794	-930.85028	
4735	47.340	-763.45123	24.57522	-635.32550	806.59033	25.67440	-640.70026	-671.47900	-2.96782	499.52264	770.48944	-4.09881	508.35278	22.69269	1330.06213	-927.67041	
4736	47.350	-762.63855	25.93606	-634.92218	807.45282	26.75864	-640.13739	-670.48932	-4.06766	499.96997	771.26672	-5.05537	508.65250	23.06335	1332.52930	-924.24530	
4737	47.360	-761.80023	26.97695	-634.17126	808.15338	28.34999	-639.94330	-669.52673	-5.43945	500.65839	772.63708	-5.97769	509.12103	24.37276	1334.71399	-920.77435	
4738	47.370	-761.02728	28.81280	-633.99084	809.00226	30.04172	-639.49677	-668.71423	-6.20515	500.86981	773.05566	-7.33363	509.34982	25.37837	1336.75671	-917.66016	
4739	47.380	-760.31274	30.23416	-633.50983	809.86304	31.41636	-638.95685	-667.97681	-7.22971	501.12793	773.46149	-8.43969	509.61987	26.50162	1338.67932	-914.26294	
4740	47.390	-759.35925	32.05744	-633.49536	810.39722	32.74051	-638.82391	-667.12225	-8.17826	501.35782	774.73529	-9.32652	509.87192	26.87388	1340.80273	-911.51245	
4741	47.400	-758.55621	33.50920	-632.90002	811.44653	34.25208	-638.34418	-666.52203	-9.02929	501.58078	775.45764	-10.53080	510.14304	27.61713	1342.63684	-908.71082	
